<?xml version="1.0" encoding="UTF-8"?>
<svg width="30px" height="32px" viewBox="0 0 30 32" version="1.1" xmlns="http://www.w3.org/2000/svg" xmlns:xlink="http://www.w3.org/1999/xlink">
    <!-- Generator: Sketch 47.1 (45422) - http://www.bohemiancoding.com/sketch -->
    <title>icons/products</title>
    <desc>Created with Sketch.</desc>
    <defs></defs>
    <g id="Hygieia-Executive" stroke="none" stroke-width="1" fill="none" fill-rule="evenodd">
        <g id="Portfolio---Product-View" transform="translate(-39.000000, -97.000000)" stroke="#FFFFFF" fill="#FFFFFF">
            <g id="icons/products" transform="translate(40.000000, 97.000000)">
                <path d="M27.3170583,7.28576894 L27.3170583,24.988237 L21.1707237,27.4426733 L21.1707237,22.4914593 C21.1782359,22.2940937 20.9825776,22.1144841 20.7865778,22.1394109 C20.6189195,22.1605816 20.4809684,22.3227766 20.4877976,22.4914593 L20.4877976,27.6134048 C20.4867733,27.6458438 20.4905294,27.6782828 20.498383,27.7093559 L14.341463,30.1743776 L14.341463,12.4719095 L20.4877976,10.0174732 L20.4877976,14.9792726 C20.4854074,15.1599065 20.6489682,15.3255161 20.8292607,15.3255161 C21.0095532,15.3255161 21.1734554,15.1599065 21.1707237,14.9792726 L21.1707237,9.85732704 C21.1727725,9.82147343 21.1690164,9.78527834 21.1601384,9.75079058 L27.3170583,7.28576894 Z M0.682941671,7.28576894 L13.658537,12.4719095 L13.658537,30.1743776 L0.682941671,24.988237 L0.682941671,7.28576894 Z M7.17073932,4.41543067 L19.9117495,9.51586401 L14,11.8743492 L1.25898981,6.78415974 L7.17073932,4.41543067 Z M14,1.6837264 L26.7410102,6.78415974 L20.8292607,9.14230345 L8.08825049,4.05245547 L14,1.6837264 Z M13.8719514,1.00080033 L0.213429999,6.46420888 C0.0870886767,6.51508687 -0.00135024917,6.64791599 1.56029629e-05,6.78415974 L1.56029629e-05,25.2231636 C0.00274730724,25.3556512 0.090503307,25.4830169 0.213429999,25.5325291 L13.8719514,30.9959376 C13.9532196,31.0290595 14.0471219,31.0290595 14.1280486,30.9959376 L27.78657,25.5325291 C27.9094967,25.4830169 27.9972527,25.3556512 27.9999844,25.2231636 L27.9999844,6.78415974 C28.0013502,6.64791599 27.9129113,6.51508687 27.78657,6.46420888 L14.1280486,1.00080033 C13.9931707,0.957434525 13.9125855,0.991239365 13.8719514,1.00080033 L13.8719514,1.00080033 Z" id="Fill-1"></path>
            </g>
        </g>
    </g>
</svg>