<?xml version="1.0" encoding="utf-8"?>
<!-- Generator: Adobe Illustrator 19.2.0, SVG Export Plug-In . SVG Version: 6.00 Build 0)  -->
<svg version="1.1"
	 id="svg3663" xmlns:cc="http://creativecommons.org/ns#" xmlns:dc="http://purl.org/dc/elements/1.1/" xmlns:rdf="http://www.w3.org/1999/02/22-rdf-syntax-ns#" xmlns:svg="http://www.w3.org/2000/svg"
	 xmlns="http://www.w3.org/2000/svg" xmlns:xlink="http://www.w3.org/1999/xlink" x="0px" y="0px" viewBox="0 0 167.2 168"
	 style="enable-background:new 0 0 167.2 168;" xml:space="preserve">
<style type="text/css">
	.st0{clip-path:url(#SVGID_2_);}
	.st1{fill:url(#path3705_1_);}
	.st2{fill:#227241;}
	.st3{fill:#FFFFFF;}
</style>
<g id="g3671" transform="matrix(1.3333333,0,0,-1.3333333,0,168)">
	<g id="g3673" transform="scale(0.1)">
		<g id="g3689">
			<g>
				<g>
					<defs>
						<path id="SVGID_1_" d="M630,1260C282.1,1260,0,977.9,0,630C0,300.4,253.1,30,575.5,2.4v313.2
							c-165.9,22.9-299,148.5-332.9,310.6h371.3v-69.5l-26.1-60.8l42.3,38.5l42.3-38.5l-26.1,60.8v69.5h371.3
							c-33.9-162.1-167-287.8-332.9-310.6V2.4c313.3,26.9,561.1,283,574.9,599.8c0.4,9.2,0.6,18.5,0.6,27.8
							C1260,977.9,977.9,1260,630,1260z"/>
					</defs>
					<clipPath id="SVGID_2_">
						<use xlink:href="#SVGID_1_"  style="overflow:visible;"/>
					</clipPath>
					<g id="g3691" class="st0">
						
							<linearGradient id="path3705_1_" gradientUnits="userSpaceOnUse" x1="-26798.4492" y1="-2431.4167" x2="-26797.4492" y2="-2431.4167" gradientTransform="matrix(1.777777e-09 25.6014 25.6014 -1.777777e-09 62877.832 685684.5)">
							<stop  offset="0" style="stop-color:#31A740"/>
							<stop  offset="5.600290e-02" style="stop-color:#31A740"/>
							<stop  offset="1" style="stop-color:#7ECA2B"/>
						</linearGradient>
						<path id="path3705" class="st1" d="M630,1260C282.1,1260,0,977.9,0,630C0,300.4,253.1,30,575.5,2.4v313.2
							c-165.9,22.9-299,148.5-332.9,310.6h371.3v-69.5l-26.1-60.8l42.3,38.5l42.3-38.5l-26.1,60.8v69.5h371.3
							c-33.9-162.1-167-287.8-332.9-310.6V2.4c313.3,26.9,561.1,283,574.9,599.8c0.4,9.2,0.6,18.5,0.6,27.8
							C1260,977.9,977.9,1260,630,1260"/>
					</g>
				</g>
			</g>
		</g>
		<path id="path3707" class="st2" d="M1107.7,818.1c-35.8,95.7-101.5,168.1-180.1,198.6c-89.1,34.7-214.1,29.2-292.3-60.9l-0.7-0.8
			c-22.9-28.3-31.6-50.3-36.4-73.4c-52.6-0.8-62.6-27.9-62.6-63.4c0-29.8,13.2-72.2,29.1-110.5c15.8-38.3,21.4-63.7,32-74.3
			c8.1-8.1,17.5-7.2,17.5-7.2h32.1c0,0,9.3-0.9,17.5,7.2c10.6,10.6,16.2,36.1,32,74.3c15.8,38.3,29.1,80.7,29.1,110.5
			c0,35.6-10.1,62.7-63,63.4c3.6,10.4,9.3,20.7,20.4,34.3c58.7,67.2,154.4,70.3,223.4,43.5c62.4-24.2,115.2-83.6,144.9-163
			c30-80.1,32.4-168.8,6.7-243.3c-68.9-199.2-236.4-279.7-372.3-291v-61.6c156.2,11.3,350.9,102.8,430.3,332.5
			C1145.2,621,1142.6,724.8,1107.7,818.1"/>
		<path id="path3709" class="st2" d="M684.5,118.3H498.4c-38.1,0-40,33.8-40,40.5c0,4.1,1.1,40.6,40,40.6h77v61.4h-77
			c-30.5,0-57.5-11.6-76.1-32.7C406,209.6,397,185,397,158.8c0-66.9,51-101.9,101.4-101.9h186.1c40.6,0,78.2-13.2,108.8-35.4
			c23.1,6.2,45.7,13.6,67.7,22.3C816.2,89.7,753.6,118.3,684.5,118.3"/>
		<path id="path3711" class="st3" d="M575.5,2.4c18-1.6,36.2-2.4,54.6-2.4c18.4,0,36.5,0.8,54.5,2.4v54.5H575.5V2.4"/>
		<path id="path3713" class="st3" d="M646.2,626.2v-69.5l26.1-60.8L630,534.4l-42.3-38.5l26.1,60.8v69.5H242.5
			c33.9-162.1,167-287.8,332.9-310.6v-54.7v-61.4v-81.1h109.1v197.3c165.9,22.9,299,148.5,332.9,310.6H646.2"/>
	</g>
</g>
</svg>
