<?xml version="1.0" encoding="UTF-8"?>
<svg width="19px" height="22px" viewBox="0 0 19 22" version="1.1" xmlns="http://www.w3.org/2000/svg" xmlns:xlink="http://www.w3.org/1999/xlink">
    <!-- Generator: Sketch 47.1 (45422) - http://www.bohemiancoding.com/sketch -->
    <title>icons/user</title>
    <desc>Created with Sketch.</desc>
    <defs></defs>
    <g id="Hygieia-Executive" stroke="none" stroke-width="1" fill="none" fill-rule="evenodd">
        <g id="Executive-Selection" transform="translate(-40.000000, -102.000000)" fill-rule="nonzero" fill="#FFFFFF">
            <g id="icons/user" transform="translate(40.000000, 102.000000)">
                <path d="M9.796875,10.1081081 C7.0095629,10.1081081 4.75,7.84533103 4.75,5.05405405 C4.75,2.26277708 7.0095629,0 9.796875,0 C12.5841871,0 14.84375,2.26277708 14.84375,5.05405405 C14.84375,7.84533103 12.5841871,10.1081081 9.796875,10.1081081 Z M9.796875,8.91891892 C11.928349,8.91891892 13.65625,7.18855998 13.65625,5.05405405 C13.65625,2.91954813 11.928349,1.18918919 9.796875,1.18918919 C7.66540104,1.18918919 5.9375,2.91954813 5.9375,5.05405405 C5.9375,7.18855998 7.66540104,8.91891892 9.796875,8.91891892 Z" id="Oval-2"></path>
                <path d="M19,20.8108108 L19,21.403761 L18.4078943,21.4054031 C14.5311246,21.4161547 12.0502658,21.4256284 10.6849744,21.4337676 C10.2005989,21.4366552 9.89154911,21.439179 9.72216931,21.4413342 C9.62348961,21.4425898 9.58936817,21.4435064 9.60119318,21.4435105 C9.59456846,21.4438582 9.19666427,21.43981 8.42036757,21.4354033 C6.99360176,21.427304 4.47807273,21.4173327 0.591929845,21.4054026 L0,21.4035854 L0,20.8108108 C0,15.5566424 4.25329488,11.2972973 9.5,11.2972973 C14.7807797,11.2972973 19,15.489463 19,20.8108108 Z M9.5,12.4864865 C5.10812688,12.4864865 1.51176595,15.897324 1.20824477,20.2181191 C4.74902936,20.2292149 7.07556672,20.238561 8.42709891,20.2462332 C9.29263008,20.2511465 9.57571064,20.2540265 9.53903765,20.2559514 C9.60491246,20.2524937 9.82637335,20.2496759 10.6779053,20.2445995 C11.9713995,20.2368883 14.2635765,20.2279865 17.7924671,20.2179384 C17.4953428,15.8416297 13.9290116,12.4864865 9.5,12.4864865 Z" id="Oval-2-Copy"></path>
            </g>
        </g>
    </g>
</svg>