<?xml version="1.0" encoding="UTF-8"?>
<svg width="14px" height="11px" viewBox="0 0 14 11" version="1.1" xmlns="http://www.w3.org/2000/svg" xmlns:xlink="http://www.w3.org/1999/xlink">
    <!-- Generator: Sketch 47.1 (45422) - http://www.bohemiancoding.com/sketch -->
    <title>icons/trend-indicator/green</title>
    <desc>Created with Sketch.</desc>
    <defs></defs>
    <g id="Symbols" stroke="none" stroke-width="1" fill="none" fill-rule="evenodd">
        <g id="buttons/ghost-btn-copy" transform="translate(-123.000000, -8.000000)" fill="#FFFFFF">
            <path d="M130.880324,10.634114 L130.880324,19.1843166 L130.880324,19.1843166 C130.880324,19.7401841 130.429705,20.1908038 129.873837,20.1908038 L129.873837,20.1908038 C129.31797,20.1908038 128.86735,19.7401841 128.86735,19.1843166 L128.86735,10.6143618 L126.305492,13.1762202 L126.305492,13.1762202 C125.912434,13.5692779 125.275162,13.5692779 124.882104,13.1762202 L124.882104,13.1762202 L124.882104,13.1762202 C124.489046,12.7831625 124.489046,12.1458901 124.882104,11.7528324 L129.152267,7.48266913 L129.152267,7.48266913 C129.348796,7.28614029 129.606379,7.18787588 129.863961,7.18787588 C130.121544,7.18787588 130.379126,7.28614029 130.575655,7.48266913 L134.845818,11.7528324 C135.238876,12.1458901 135.238876,12.7831625 134.845818,13.1762202 C134.452761,13.5692779 133.815488,13.5692779 133.42243,13.1762202 L130.880324,10.634114 Z" id="icons/trend-indicator/green" transform="translate(129.863961, 13.689340) rotate(-270.000000) translate(-129.863961, -13.689340) "></path>
        </g>
    </g>
</svg>