<?xml version="1.0" encoding="UTF-8"?>
<svg width="21px" height="28px" viewBox="0 0 21 28" version="1.1" xmlns="http://www.w3.org/2000/svg" xmlns:xlink="http://www.w3.org/1999/xlink">
    <!-- Generator: Sketch 47.1 (45422) - http://www.bohemiancoding.com/sketch -->
    <title>productComponents</title>
    <desc>Created with Sketch.</desc>
    <defs></defs>
    <g id="Symbols" stroke="none" stroke-width="1" fill="none" fill-rule="evenodd">
        <g id="productComponents/section-header" transform="translate(-23.000000, -10.000000)" stroke="#FFFFFF" fill="#FFFFFF" fill-rule="nonzero">
            <g id="productComponents" transform="translate(24.000000, 11.000000)">
                <path d="M18.6544815,3.36581481 L9.5,0 L0.33812963,3.363 L0,3.48685185 L0,3.98894444 L0,4.09133333 L0,9.61892593 L0,10.1210185 L0,10.2234074 L0,16.4504815 L0,22.5825556 L9.14814815,25.9015741 L9.5,26.0292963 L9.85185185,25.9015741 L19,22.5825556 L19,16.4504815 L19,10.300463 L19,10.1347407 L19,9.62455556 L19,4.16838889 L19,4.00266667 L19,3.49248148 L18.6544815,3.36581481 Z M18.2962963,9.62772222 L17.6277778,9.87014815 L9.85185185,12.6912963 L9.85185185,7.30831481 L18.2962963,4.25705556 L18.2962963,9.62772222 Z M9.85185185,13.440037 L18.2962963,10.3887778 L18.2962963,15.9568333 L9.85185185,19.0207593 L9.85185185,13.440037 Z M9.5,0.749796296 L17.6277778,3.73807407 L9.5,6.68694444 L5.17327778,5.11733333 L1.36483333,3.73525926 L9.5,0.749796296 Z M6.71896296,6.42692593 L9.14814815,7.30831481 L9.14814815,12.6912963 L5.17327778,11.2494074 L1.36483333,9.86733333 L0.703703704,9.62772222 L0.703703704,4.24474074 L6.71896296,6.42692593 Z M9.14814815,19.0207593 L0.703703704,15.9571852 L0.703703704,10.3768148 L6.71896296,12.559 L9.14814815,13.440037 L9.14814815,19.0207593 Z M9.14814815,25.1528333 L0.703703704,22.0889074 L0.703703704,16.7055741 L9.14814815,19.7691481 L9.14814815,25.1528333 Z M18.2962963,22.0889074 L9.85185185,25.1524815 L9.85185185,19.7691481 L18.2962963,16.7055741 L18.2962963,22.0889074 Z" id="Shape"></path>
            </g>
        </g>
    </g>
</svg>
